<?xml version="1.0" standalone="no"?>
<!DOCTYPE svg PUBLIC "-//W3C//DTD SVG 1.1//EN" "http://www.w3.org/Graphics/SVG/1.1/DTD/svg11.dtd" >
<!--
2013-9-30: Created.
-->
<svg>
<metadata>
Created by iconfont
</metadata>
<defs>

<font id="iconfont" horiz-adv-x="1024" >
  <font-face
    font-family="iconfont"
    font-weight="500"
    font-stretch="normal"
    units-per-em="1024"
    ascent="896"
    descent="-128"
  />
    <missing-glyph />
    
    <glyph glyph-name="gouwuche" unicode="&#58880;" d="M347.136 112.64q19.456 0 36.864-7.168t30.72-19.968 20.48-30.208 7.168-36.864-7.168-36.864-20.48-30.208-30.72-20.48-36.864-7.68q-20.48 0-37.376 7.68t-30.208 20.48-20.48 30.208-7.168 36.864 7.168 36.864 20.48 30.208 30.208 19.968 37.376 7.168zM773.12 110.592q19.456 0 37.376-7.168t30.72-19.968 20.48-30.208 7.68-36.864-7.68-36.864-20.48-30.208-30.72-20.48-37.376-7.68-36.864 7.68-30.208 20.48-20.48 30.208-7.68 36.864 7.68 36.864 20.48 30.208 30.208 19.968 36.864 7.168zM945.152 692.224q28.672 0 44.544-7.68t22.528-18.944 6.144-24.064-3.584-22.016-12.8-37.888-22.016-62.976-24.064-68.096-17.92-53.248q-13.312-40.96-33.792-56.832t-50.176-15.872l-34.816 0-66.56 0-87.04 0-95.232 0-253.952 0 15.36-92.16 516.096 0q49.152 0 49.152-41.984 0-20.48-9.728-35.328t-38.4-14.848l-49.152 0-95.232 0-117.76 0-119.808 0-98.304 0-56.32 0q-20.48 0-34.304 9.216t-23.04 24.064-14.848 32.256-8.704 32.768q-1.024 6.144-5.632 29.696t-11.264 58.88-14.848 78.848-16.384 87.552q-19.456 103.424-44.032 230.4l-76.8 0q-15.36 0-25.6 7.68t-16.896 18.432-9.216 23.04-2.56 22.528q0 20.48 13.824 33.792t37.376 13.312l22.528 0 20.48 0 25.6 0 34.816 0q20.48 0 32.768-6.144t19.456-15.36 10.24-19.456 5.12-17.408q2.048-8.192 4.096-23.04t4.096-30.208q3.072-18.432 6.144-38.912l700.416 0z"  horiz-adv-x="1024" />

    
    <glyph glyph-name="shouqi" unicode="&#59099;" d="M812.173 290.732c0 167.954-135.922 303.855-303.855 303.855-167.954 0-303.855-135.925-303.855-303.855 0-167.954 135.924-303.855 303.855-303.855 167.954 0 303.855 135.925 303.855 303.855zM131.247 290.732c0 208.253 168.822 377.072 377.072 377.072s377.072-168.822 377.072-377.072c0-208.253-168.822-377.072-377.072-377.072-208.257 0-377.072 168.822-377.072 377.072zM610.907 130.745l-59.056-58.771-219.535 220.586 219.535 220.586 59.056-58.771-161.047-161.815 161.047-161.814z"  horiz-adv-x="1024" />

    
    <glyph glyph-name="temai" unicode="&#58968;" d="M447.136-131.52c-3.36 0-6.752 0.544-10.112 1.664-139.04 46.4-234.784 169.536-244.224 310.752C192.256 183.136 192 185.472 192 187.872c0 158.208-53.792 217.12-54.336 217.696-8.992 9.536-11.424 23.808-5.856 35.68 5.568 11.872 17.92 19.392 30.72 18.56 9.952-0.608 98.592-6.72 144.48-37.312 22.112-14.72 40.384-42.048 54.08-68.672 47.552 138.944 24.64 356 24.352 358.56-1.376 12.608 4.8 24.8 15.744 31.168 10.944 6.336 24.608 5.664 34.848-1.76 8.768-6.368 186.336-136.128 267.776-268.768 4.096 31.232 5.024 72.512 1.568 112.064-1.152 13.088 5.824 25.568 17.6 31.424 11.744 5.888 25.952 3.968 35.68-4.832 5.984-5.344 145.696-134.368 138.72-408.608 0-125.6-68.448-242.912-178.624-305.376-12.288-6.976-27.776-5.056-38.016 4.8-10.176 9.856-12.704 25.216-6.176 37.792 10.656 20.48 16.032 41.664 16.032 62.976 1.792 70.208-83.648 146.784-151.552 194.464 6.176-54.88 7.456-125.568-18.528-163.84-5.024-7.36-12.896-12.32-21.728-13.664-8.96-1.184-17.824 1.152-24.768 6.688-0.352 0.288-34.848 27.872-66.496 45.6-15.392 8.64-20.928 28.128-12.288 43.52s28.128 20.896 43.552 12.288c13.28-7.392 26.688-16.128 38.432-24.256 4.608 42.752-3.104 108.672-12.448 151.84-2.656 12.256 2.08 24.928 12.128 32.416 10.016 7.52 23.52 8.448 34.528 2.4 25.088-13.792 243.136-137.856 243.168-284.48 49.792 52.768 78.752 123.296 78.752 197.632 3.328 131.84-30.944 226.08-63.328 285.056-3.936-48.64-16.032-98.912-47.008-119.648-8.352-5.568-18.848-6.944-28.416-3.584-9.504 3.328-16.864 10.976-19.904 20.576-28.736 91.328-148.544 200.672-220.64 260.032 4.16-102.432 0.48-286.944-69.088-388.544-6.944-10.08-19.168-15.232-31.104-13.568-12.096 1.824-22.144 10.368-25.824 22.048-10.816 34.304-35.52 88.96-56.544 102.944-11.2 7.456-29.856 13.376-49.696 17.76 16.16-38.56 31.68-96.48 33.888-178.976C255.904 206.656 256 205.28 256 203.872c0-121.216 82.752-233.504 201.248-273.056 16.768-5.6 25.824-23.712 20.224-40.48C472.992-123.072 460.512-131.52 447.136-131.52z"  horiz-adv-x="1024" />

    
    <glyph glyph-name="xinxi" unicode="&#58885;" d="M528.475741 796.345326c-230.720755 0-417.729963-161.638377-417.729963-361.024473 0-97.81477 45.175899-186.374758 118.262474-251.344468l-32.43676-176.424128 223.528959 79.472006c34.641985-8.036024 70.811766-12.726859 108.37529-12.726859 230.734058 0 417.742243 161.606655 417.742243 361.021403C946.216961 634.706949 759.210823 796.345326 528.475741 796.345326zM528.475741 110.395552c-12.836353 0-25.484418 0.557702-37.974893 1.683339-22.464641 1.945305-44.162826 5.836939-65.272609 11.022031l-58.373479-20.751626 0 0-126.114303-44.889373 26.596751 144.420227c-9.426697 7.846712-18.180058 16.166191-26.644847 24.758893-54.954613 56.471153-88.194668 129.137149-88.194668 208.682833 0 179.456185 168.326706 324.905858 375.977024 324.905858 207.66362 0 375.990327-145.449673 375.990327-324.905858C904.466068 255.866714 736.140385 110.395552 528.475741 110.395552z"  horiz-adv-x="1024" />

    
    <glyph glyph-name="kefu" unicode="&#58907;" d="M528.387737 674.474674c-152.98837 0-276.978289-118.721939-276.978289-265.190825 0-71.764464 29.762861-136.715755 78.024028-184.489828 21.938662-18.932188 45.896306-35.604916 72.235185-48.712445 14.307867-7.094582 30.110785-14.292518 46.678112-20.777209 25.347295-7.27366 52.224432-11.274788 80.040964-11.274788 152.987347 0 276.942473 118.765941 276.942473 265.2512C805.33021 555.752736 681.375084 674.474674 528.387737 674.474674L528.387737 674.474674 528.387737 674.474674zM377.451096 355.807914c156.950611-126.893039 301.873282 0 301.873282 0s0-131.273812-150.935618-131.273812C377.451096 224.534102 377.451096 355.807914 377.451096 355.807914L377.451096 355.807914 377.451096 355.807914zM528.387737 756.809891c-170.408111 0-313.365011-112.428605-352.428701-264.060071 0 0-97.739045-14.794961-93.444229-108.986203 4.328585-94.139054 107.473757-99.859335 107.473757-99.859335 1.216711-3.006474 22.87908 2.920516 30.667463 4.190439-16.063861 37.360909-24.99937 78.251202-24.99937 121.155361 0 175.9882 148.971893 318.631968 332.732104 318.631968 183.759187 0 332.678892-142.643768 332.678892-318.631968 0-140.384307-94.782713-259.479753-226.422869-301.898865-8.55177-2.781346-17.436114 0.905626-17.436114 0.905626s-22.340821 3.997034-50.2955-3.581572c-13.785981-3.798513-19.677155-17.845437-18.877953-30.153764 1.043772-14.675234 6.884804-25.244964 22.877033-27.538193 20.617573-3.130294 49.963948-6.641257 61.020772 14.464433 2.992147 5.771447 6.259564 16.411785 13.31833 18.671245 101.737102 33.108049 183.202509 108.291378 221.797525 203.822129 0 0 102.537328 11.490705 105.544825 102.014418 3.043313 90.488921-91.705632 106.535385-91.705632 106.535385C841.90829 644.276908 698.86441 756.809891 528.387737 756.809891L528.387737 756.809891 528.387737 756.809891z"  horiz-adv-x="1024" />

    
    <glyph glyph-name="pingguo" unicode="&#58892;" d="M755.472961 350.351362c-1.125612 166.078945 92.197861 170.376736 96.393325 173.037274-52.494454 76.746278-134.152493 88.821025-163.21375 89.946637-69.480963 7.060658-135.58509-40.112721-170.888378-40.112721-35.200959 0-89.639652 40.215049-147.250525 39.191766-75.722994-1.125612-145.613271-43.898871-184.702708-111.74258-78.690517-136.608374-20.158689-338.911562 56.587589-449.630858 37.452183-54.234036 82.169681-115.119416 140.906166-112.970521 56.48526 2.251224 77.87189 36.633557 146.227241 36.633557s87.490756-36.633557 147.352853-35.405616c60.783052 1.125612 99.360847 55.25732 136.506046 109.696013 43.080244 62.931948 60.783052 120.747477 61.806336 123.817328-1.330269 0.61397-118.598581 66.820426-119.826521 177.539722L755.472961 350.351362 755.472961 350.351362zM511.829112 607.604885c0 123.203358 99.872489 223.178175 223.178175 223.178175C735.007287 707.477374 635.032469 607.604885 511.829112 607.604885z"  horiz-adv-x="1024" />

    
    <glyph glyph-name="umidd17" unicode="&#58906;" d="M938.7008 226.474667 938.7008 646.587733c0 90.555733-73.5232 164.078933-164.1472 164.078933L249.378133 810.666667c-90.555733 0-164.078933-73.489067-164.078933-164.078933l0-525.2096c0-90.555733 73.454933-164.078933 164.078933-164.078933l525.2096 0c80.725333 0 147.8656 58.368 161.553067 135.099733-43.52 18.8416-232.106667 100.283733-330.376533 147.182933-74.786133-90.589867-153.088-144.930133-271.121067-144.930133s-196.8128 72.704-187.357867 161.655467c6.2464 58.402133 46.2848 153.9072 220.296533 137.5232 91.682133-8.6016 133.666133-25.736533 208.418133-50.414933 19.3536 35.4304 35.4304 74.513067 47.616 116.0192L292.0448 459.434667l0 32.8704 164.0448 0 0 58.9824L256 551.287467l0 36.181333 200.123733 0L456.123733 672.6656c0 0 1.809067 13.312 16.520533 13.312l82.056533 0 0-98.474667 213.333333 0 0-36.181333-213.333333 0 0-58.9824 174.045867 0c-16.008533-65.1264-40.277333-124.962133-70.690133-177.220267C708.608 296.823467 938.7008 226.474667 938.7008 226.474667L938.7008 226.474667 938.7008 226.474667 938.7008 226.474667zM321.570133 151.005867c-124.7232 0-144.452267 78.7456-137.8304 111.650133 6.5536 32.733867 42.666667 75.502933 112.0256 75.502933 79.6672 0 151.04-20.445867 236.714667-62.088533C472.302933 197.666133 398.370133 151.005867 321.570133 151.005867L321.570133 151.005867 321.570133 151.005867zM321.570133 151.005867"  horiz-adv-x="1024" />

    
    <glyph glyph-name="xingxing" unicode="&#58988;" d="M773.812 418.433l-137.191-98.648 52.849-160.508c0.812-2.376 1.281-5.113 1.281-7.959 0-14.010-11.357-25.367-25.367-25.367-0.059 0-0.119 0-0.178 0.001 0.004-0-0.002-0-0.007-0-5.609 0-10.796 1.811-15.007 4.88l0.073-0.061-138.265 99.404-138.24-99.396c-4.143-3.018-9.333-4.828-14.947-4.828-14.052 0-25.454 11.344-25.548 25.373-0 0.012-0 0.015-0 0.018 0 2.837 0.469 5.564 1.332 8.109l52.798 160.33-137.193 98.648c-6.434 4.656-10.571 12.143-10.571 20.595 0 13.999 11.349 25.348 25.348 25.348 0.066 0 0.132-0 0.198-0.001l169.818 0 52.597 159.744c3.359 10.48 13.017 17.934 24.416 17.934s21.057-7.454 24.366-17.753l52.647-159.925h169.834c0.052 0 0.113 0.001 0.174 0.001 13.999 0 25.348-11.349 25.348-25.348 0-8.45-4.135-15.935-10.492-20.54z"  horiz-adv-x="1024" />

    
    <glyph glyph-name="icon-test" unicode="&#59173;" d="M325.323367 122.828722c0 25.876344-21.007453 46.744627-46.883797 46.744627H153.510256c-25.876344 0-46.883797-21.007453-46.883797-46.744627s21.007453-46.744627 46.883797-46.744627h124.929314c25.876344 0 46.883797 20.868283 46.883797 46.744627zM153.510256 605.99093h124.929314c25.876344 0 46.883797 21.007453 46.883797 46.744627 0 25.876344-21.007453 46.744627-46.883797 46.744627H153.510256c-25.876344 0-46.883797-20.868283-46.883797-46.744627 0-25.737174 21.007453-46.744627 46.883797-46.744627zM106.626459 387.712555c0-25.876344 21.007453-46.744627 46.883797-46.744627h124.929314c25.876344 0 46.883797 20.868283 46.883797 46.744627s-21.007453 46.744627-46.883797 46.744627H153.510256c-25.876344 0.138146-46.883797-20.868283-46.883797-46.744627zM852.444762 839.855282H247.136633c-25.879414 0-46.879704-20.871353-46.879703-46.744627v-46.744627h78.04347c51.746548 0 93.77271-41.877783 93.77271-93.490278s-41.877783-93.490278-93.77271-93.490277h-77.908394v-77.908394h78.043471c51.758828 0 93.77271-41.871643 93.77271-93.484138 0-51.618635-41.877783-93.490278-93.77271-93.490278h-78.043471V216.593246h78.043471c51.758828 0 93.77271-41.871643 93.77271-93.625354 0-51.612495-41.877783-93.490278-93.77271-93.490278h-78.043471v-46.744627c0-25.873274 21.012569-46.738487 46.879704-46.738487H852.592119c35.613102 0 64.680115 21.00029 64.680114 46.738487V793.109632c-0.135076 25.873274-29.067013 46.74565-64.827471 46.74565zM766.028601 325.462792h-98.68765v-114.815979c0-16.59291-14.343683-30.04734-32.045857-30.047339-17.689894 0-32.033577 13.45443-32.033577 30.047339V325.462792h-92.558046c-17.689894 0-32.033577 13.45443-32.033577 30.04734 0 16.59905 14.343683 30.05348 32.033577 30.05348h92.558046V418.952047h-92.558046c-17.689894 0-32.033577 13.46057-32.033577 30.047339 0 16.59905 14.343683 30.05348 32.033577 30.05348h48.351218L488.194828 543.641907c-12.687974 11.56029-12.982686 30.587646-0.662079 42.490743 12.332886 11.904121 32.621978 12.173251 45.310975 0.61296l102.415554-93.342921 102.439091 93.250824c12.652158 11.615549 32.92897 11.426237 45.310975-0.434905 12.382005-11.855002 12.173251-30.881334-0.465605-42.496883l-70.380953-64.667836h53.708225c17.702174 0 32.045857-13.45443 32.045857-30.053479 0-16.58677-14.343683-30.04734-32.045857-30.04734h-98.529037v-33.388435h98.68765c17.689894 0 32.033577-13.45443 32.033577-30.05348-0.001023-16.593933-14.344706-30.048363-32.0346-30.048363z"  horiz-adv-x="1024" />

    
    <glyph glyph-name="baobao" unicode="&#58925;" d="M888.472987-128H123.006402a107.591936 107.591936 0 0 0-107.466829 107.46683l92.07868 546.091631c-0.250214 56.673427 47.978497 104.902138 107.279169 104.902138h581.747099a107.591936 107.591936 0 0 0 107.466829-107.46683l91.640807-540.837141c0.250214-61.927917-48.041051-110.156628-107.27917-110.156628zM214.897422 599.183873a76.315211 76.315211 0 0 1-76.252657-76.190104l-92.078681-546.091631c0.18766-39.408674 34.404398-73.562859 76.440318-73.562859h765.466585a76.315211 76.315211 0 0 1 76.252658 76.190104L873.084838 520.366524c-0.250214 44.600611-34.404398 78.817349-76.440317 78.817349h-581.747099zM505.770971 217.607819c-182.155651 0-347.234209 86.323763-410.851069 214.871106l-2.251924 4.503848 15.012829 88.575688c-0.250214 56.673427 47.978497 104.902138 107.216615 104.902138h581.747099a107.591936 107.591936 0 0 0 107.466829-107.529383l14.762615-86.010996-2.251924-4.566402C853.067734 303.931582 687.864069 217.607819 505.770971 217.607819zM125.195773 441.861943C185.247086 326.263164 337.37708 248.884545 505.770971 248.884545c168.331338 0 320.461332 77.316066 380.575199 192.977398l-13.261332 78.504581c-0.250214 44.663164-34.404398 78.879902-76.440317 78.879902h-581.747099a76.315211 76.315211 0 0 1-76.190104-76.252657l-13.511545-81.131826zM558.753745 264.335247H452.788198c-19.954551 0-34.404398 22.894563-34.404398 54.421503 0 31.589493 14.449847 54.484056 34.404398 54.484056h105.902993c19.891998 0 34.404398-22.894563 34.404399-54.484056 0-31.52694-14.449847-54.421503-34.341845-54.421503z m-3.002566 78.442029l-102.962981-0.813195c1.313622-0.500428-3.127673-8.69493-3.127672-23.207331 0-14.449847 4.503849-22.644349 6.130238-23.957972l100.711057 0.813195c1.939157 2.627245 5.379597 10.446426 5.379596 23.144777-0.062553 14.512401-4.503849 22.706903-6.130238 24.020526zM700.061992 599.183873H311.479951V701.646426C311.479951 808.800489 398.679463 896 505.770971 896s194.29102-87.199511 194.291021-194.353574V599.183873z m-357.305315 31.276726h326.091142V701.646426A163.264508 163.264508 0 0 1 505.833525 864.723274a163.264508 163.264508 0 0 1-163.014295-163.076848V630.460599z"  horiz-adv-x="1024" />

    
    <glyph glyph-name="yuan" unicode="&#59091;" d="M512.25 831.859c60.489 0 119.135-11.832 174.308-35.169 53.323-22.554 101.226-54.855 142.377-96.006s73.453-89.054 96.006-142.377c23.336-55.173 35.169-113.819 35.169-174.308s-11.833-119.135-35.169-174.308c-22.554-53.323-54.855-101.226-96.006-142.377s-89.054-73.453-142.377-96.006c-55.173-23.336-113.819-35.169-174.308-35.169s-119.135 11.833-174.308 35.169c-53.323 22.554-101.226 54.855-142.378 96.006s-73.452 89.054-96.006 142.378C76.222 264.865 64.389 323.511 64.389 384s11.833 119.135 35.169 174.308c22.554 53.323 54.855 101.226 96.006 142.378s89.054 73.452 142.378 96.006c55.173 23.335 113.819 35.167 174.308 35.167m0 64C229.557 895.859 0.389 666.692 0.389 383.998s229.168-511.861 511.861-511.861 511.861 229.167 511.861 511.861S794.943 895.859 512.25 895.859z"  horiz-adv-x="1024" />

    
    <glyph glyph-name="denglu" unicode="&#58895;" d="M512 853.333333C251.733333 853.333333 42.666667 644.266667 42.666667 384c0-147.2 68.266667-279.466667 172.8-364.8C296.533333-46.933333 398.933333-85.333333 512-85.333333s215.466667 38.4 296.533333 104.533333c106.666667 85.333333 172.8 217.6 172.8 364.8 0 260.266667-209.066667 469.333333-469.333333 469.333333z m0-896c-93.866667 0-179.2 29.866667-249.6 81.066667C290.133333 151.466667 392.533333 234.666667 512 234.666667s221.866667-83.2 249.6-196.266667C691.2-12.8 605.866667-42.666667 512-42.666667z m-170.666667 490.666667c0 93.866667 76.8 170.666667 170.666667 170.666667s170.666667-76.8 170.666667-170.666667-76.8-170.666667-170.666667-170.666667-170.666667 76.8-170.666667 170.666667z m454.4-381.866667c-27.733333 89.6-96 162.133333-183.466666 192 68.266667 36.266667 113.066667 106.666667 113.066666 187.733334 0 117.333333-96 213.333333-213.333333 213.333333s-213.333333-96-213.333333-213.333333c0-81.066667 44.8-151.466667 113.066666-187.733334-87.466667-32-155.733333-102.4-183.466666-192C140.8 145.066667 85.333333 258.133333 85.333333 384 85.333333 618.666667 277.333333 810.666667 512 810.666667s426.666667-192 426.666667-426.666667c0-125.866667-55.466667-238.933333-142.933334-317.866667z"  horiz-adv-x="1024" />

    
    <glyph glyph-name="svg-" unicode="&#58893;" d="M475.366443 603.750175L109.235535 237.516938c-20.261017-20.261017-20.261017-53.006096 0-73.267113 20.158689-20.158689 53.006096-20.261017 73.267113 0l329.59968 329.59968 329.599681-329.59968c20.158689-20.158689 53.006096-20.261017 73.267113 0 20.261017 20.261017 20.158689 53.006096 0 73.267113l-366.335565 366.233237c-20.261017 20.158689-53.006096 20.158689-73.267114 0z"  horiz-adv-x="1024" />

    
    <glyph glyph-name="yao" unicode="&#58952;" d="M604.16 680.96c-10.24-10.24-10.24-25.6 0-35.84 10.24-10.24 25.6-10.24 35.84 0 35.84 35.84 97.28 35.84 133.12 0 5.12-5.12 12.8-7.68 17.92-7.68s12.8 2.56 17.92 7.68c10.24 10.24 10.24 25.6 0 35.84-56.32 56.32-148.48 56.32-204.8 0zM875.52 747.52c-46.08 46.08-110.08 71.68-171.52 71.68-61.44 0-122.88-23.04-171.52-71.68l-386.56-386.56c-94.72-94.72-94.72-248.32 0-340.48 46.08-46.08 110.08-71.68 171.52-71.68 61.44 0 122.88 23.04 171.52 71.68l386.56 386.56c94.72 94.72 94.72 248.32 0 340.48z m-422.4-691.2c-35.84-35.84-84.48-56.32-135.68-56.32s-99.84 20.48-135.68 56.32c-74.24 74.24-74.24 194.56 0 268.8l176.64 176.64 240.64-240.64 28.16-28.16-174.08-176.64z m386.56 386.56l-176.64-176.64-25.6 25.6-5.12 5.12-240.64 240.64 176.64 176.64c35.84 35.84 84.48 56.32 135.68 56.32s99.84-20.48 135.68-56.32c74.24-76.8 74.24-197.12 0-271.36z"  horiz-adv-x="1024" />

    
    <glyph glyph-name="shouji" unicode="&#58933;" d="M647.149073 523.26481zM290.5197 523.26481zM554.156122 608.857211a121.026424 121.026424 0 0 0-5.120624-6.426363 42.821271 42.821271 0 0 1 5.120624 6.426363zM737.666646 850.519156H286.36303c-21.381983 0-38.723953-19.513426-38.723953-43.569308v-845.897649c0-24.056905 17.34197-43.570331 38.723953-43.570332h451.303616c21.38096 0 38.693254 19.513426 38.693254 43.570332V806.948825c0 24.055882-17.312294 43.570331-38.693254 43.570331zM495.811296 809.821245h27.63643c5.892197 0 10.660804-5.332449 10.660804-11.907191 0-6.574742-4.768607-11.905144-10.660804-11.905144h-27.63643c-5.89322 0-10.659781 5.330402-10.659781 11.905144 0 6.574742 4.76656 11.907191 10.659781 11.907191z m16.188704-871.275643c-24.299429 0-43.97863 19.680225-43.97863 43.979654 0 24.295336 19.679202 43.97863 43.97863 43.97863 24.299429 0 43.97863-19.681248 43.97863-43.97863-0.001023-24.299429-19.679202-43.979654-43.97863-43.979654zM725.030861 74.159256c0-14.277168-10.355859-25.863041-23.112394-25.863041H324.634682c-12.787234 0-23.14514 11.585873-23.14514 25.863041V744.352161c0 14.276145 10.357905 25.862018 23.14514 25.862018h377.283785c12.756535 0 23.112394-11.585873 23.112394-25.862018V74.159256z"  horiz-adv-x="1024" />

    
    <glyph glyph-name="icon-" unicode="&#58915;" d="M33.353143 420.864l936.228571 0 0-58.514286-936.228571 0 0 58.514286ZM106.496 698.806857v29.257143a58.514286 58.514286 0 0 0 58.514286 58.514286h146.285714v58.514285h-175.542857a87.771429 87.771429 0 0 1-87.771429-87.771428v-117.028572h58.514286v58.514286zM165.010286-3.364571a58.514286 58.514286 0 0 0-58.514286 58.514285v87.771429h-58.514286v-117.028572a87.771429 87.771429 0 0 1 87.771429-87.771428h175.542857v58.514286h-146.285714zM896.438857 142.921143v-87.771429a58.514286 58.514286 0 0 0-58.514286-58.514285h-146.285714v-58.514286h175.542857a87.771429 87.771429 0 0 1 87.771429 87.771428v117.028572h-58.514286zM867.181714 845.092571h-175.542857v-58.514285h146.285714a58.514286 58.514286 0 0 0 58.514286-58.514286v-87.771429h58.514286v117.028572a87.771429 87.771429 0 0 1-87.771429 87.771428zM186.075429 698.806857h58.514285v-234.057143h-58.514285zM288.475429 698.806857h58.514285v-234.057143h-58.514285zM376.246857 698.806857h43.885714v-234.057143h-43.885714zM450.267429 698.806857h87.771428v-234.057143h-87.771428zM567.296 698.806857h58.514286v-234.057143h-58.514286zM655.067429 698.806857h43.885714v-234.057143h-43.885714zM728.941714 698.806857h87.771429v-234.057143h-87.771429zM186.075429 318.464h58.514285v-234.057143h-58.514285zM288.475429 318.464h58.514285v-234.057143h-58.514285zM376.246857 318.464h43.885714v-234.057143h-43.885714zM450.267429 318.464h87.771428v-234.057143h-87.771428zM567.296 318.464h58.514286v-234.057143h-58.514286zM655.067429 318.464h43.885714v-234.057143h-43.885714zM728.941714 318.464h87.771429v-234.057143h-87.771429z"  horiz-adv-x="1024" />

    
    <glyph glyph-name="shangcheng" unicode="&#58921;" d="M608.6 785.6c-26.1 26.1-60.8 40.5-97.7 40.5-36.9 0-71.6-14.4-97.7-40.5L70 442.5l35.3-39.1 38.7 42.5v-421.1c0-22.1 12.4-42.9 28.1-58.5 15.7-15.6 40.3-24.2 62.4-24.2h552.8c22.1 0 38.9 8.6 54.5 24.2 15.7 15.7 20.2 36.4 20.2 58.5V445.9l50.6-46.5 41.2 39.1-345.2 347.1zM586 301.1V-2H420V301.1c0 7.1 6.7 13.8 12.1 19.2 5.4 5.4 16.5 7.8 23.5 7.8h110.5c7.1 0 10.2-2.4 15.6-7.8 5.5-5.4 4.3-12.2 4.3-19.2z m216.8-295.4c-5.2-5.2-8.2-7.7-15.6-7.7H641V301.1c0 21.2-4.1 42.5-20.3 58.6-16.2 16.2-33.4 24.3-54.6 24.3H455.6c-21.2 0-46.3-8.1-62.5-24.3-16.2-16.2-28.1-37.4-28.1-58.6V-2H234.5c-7.4 0-18.2 2.4-23.5 7.7-5.2 5.2-12 11.7-12 19.1V501.1l249.3 245.4c15.7 15.7 38.5 24.3 60.6 24.3 22.2 0 40-8.6 55.7-24.3L807 501.1v-476.4c0-7.3 1.1-13.8-4.2-19z"  horiz-adv-x="1024" />

    
    <glyph glyph-name="Fill" unicode="&#58886;" d="M455.410526 413.264842c30.612211 0 59.122526-3.018105 85.477053-8.08421 125.466947 77.338947 120.346947 206.686316 120.077474 212.345263C646.413474 841.781895 472.872421 852.345263 456.757895 852.884211c-209.542737-17.893053-212.021895-225.28-212.021895-234.118737 9.485474-181.625263 110.106947-207.602526 128.053895-210.728421 34.816 5.820632 57.882947 4.958316 60.631579 4.742736 7.437474 0.431158 14.767158 0.538947 21.989052 0.538948zM42.846316-43.11578899999995c0.538947 0 5.766737-18.755368 26.300631-25.061053l771.826527 0.970105c-0.431158 0.161684 16.060632 3.449263 21.39621 32.121263-0.269474 0 1.778526 150.366316-112.262737 271.737263-1.940211 2.425263-71.68 90.866526-202.805894 122.394948l-4.419369-2.425263-168.097684 7.814737c-66.182737-12.126316-175.104-51.577263-258.802526-177.960422l0.269473-0.646736-7.706947-10.778948c-2.533053-3.557053-62.356211-88.926316-65.751579-218.273684l0.053895 0.10779zM675.732211 743.8012630000001c27.162947 14.551579 60.362105 24.845474 100.998736 28.186948l0.970106 0.107789h1.024c2.048 0 203.183158-5.389474 218.597052-243.065263 0.323368-5.551158 5.389474-118.298947-91.836631-198.979369 102.777263-36.001684 156.941474-105.310316 160.067368-109.406315 110.268632-117.221053 107.196632-260.796632 106.981053-266.886737-8.677053-48.343579-39.774316-62.733474-56.858948-64.134737l-679.612631-0.970105-2.101895 0.538947-370.364632-0.538947-2.533052 0.646737A82.566737 82.566737 0 0 0 0-46.34947399999999c3.341474 144.168421 66.290526 236.328421 73.458526 246.352842C143.898947 312.32000000000005 233.364211 365.46021099999996 305.421474 390.629053c-44.732632 29.642105-96.794947 92.914526-103.801263 226.896842 0 3.610947 1.994105 257.832421 252.766315 278.366316L455.302737 896h1.077895c1.832421 0 153.869474-4.096 219.297684-152.198737z m14.713263-41.175579c6.844632-24.360421 11.587368-51.738947 13.581473-82.566737 0.377263-5.766737 5.281684-115.065263-80.626526-203.883789 28.725895-55.942737 71.518316-67.314526 82.458947-69.362526 30.396632 4.958316 50.499368 4.149895 52.978527 4.096a391.814737 391.814737 0 0 0 93.022316-6.413474c106.873263 66.613895 102.669474 177.098105 102.4 181.948631-12.395789 191.164632-160.606316 201.889684-175.21179 202.482527-36.271158-3.072-65.320421-12.773053-88.602947-26.300632z m57.344-401.138526c21.881263-19.941053 33.684211-35.031579 35.139368-36.917895 125.898105-133.874526 122.394947-297.337263 122.179369-304.235789-1.940211-10.778947-4.850526-20.048842-8.515369-27.971369l217.19579 0.269474c-0.053895 0.269474 11.856842 3.287579 16.006736 25.707789-0.269474 0 1.293474 129.778526-97.118315 234.442106-4.149895 5.227789-62.517895 79.063579-173.918316 105.849263l-3.988211-2.15579-106.981052 5.012211z"  horiz-adv-x="1185" />

    
    <glyph glyph-name="xia" unicode="&#58890;" d="M953.8886162962963 650.6599158518518h-885.7299626666666l447.5696165925926-530.4799383703703 438.16034607407414 530.4799383703703z"  horiz-adv-x="1024" />

    
    <glyph glyph-name="xing" unicode="&#58967;" d="M290.909091 25.6c-5.171717 0-9.955556 2.327273-13.317172 6.206061-3.361616 3.878788-4.654545 9.050505-3.878788 14.222222l40.59798 236.864646L142.222222 450.456566c-4.783838 4.654545-6.464646 11.507071-4.395959 17.842424s7.49899 10.860606 14.092929 11.894949l237.769697 34.521213 106.278788 215.531313c2.973737 5.947475 9.050505 9.69697 15.644444 9.696969s12.670707-3.749495 15.644445-9.696969L633.535354 514.715152l237.898989-34.521213c6.593939-0.905051 12.024242-5.559596 14.09293-11.894949 2.068687-6.335354 0.387879-13.187879-4.39596-17.842424L709.042424 282.763636l40.59798-236.864646c1.163636-6.593939-1.551515-13.187879-6.981818-17.066667s-12.412121-4.39596-18.359596-1.292929l-212.686869 111.838384-212.686868-111.838384c-2.456566-1.292929-5.171717-1.939394-8.016162-1.939394zM191.870707 450.844444L345.212121 301.381818c4.137374-4.008081 5.947475-9.826263 5.042424-15.385858l-36.20202-211.006061 189.543435 99.555556c5.042424 2.715152 11.119192 2.715152 16.161616 0l189.543434-99.684849-36.20202 211.006061c-0.905051 5.688889 0.905051 11.377778 5.042424 15.385858l153.341414 149.462627-211.911111 30.771717c-5.688889 0.775758-10.60202 4.39596-13.058586 9.567676l-94.771717 192-94.771717-192c-2.585859-5.171717-7.49899-8.662626-13.058586-9.567676l-212.040404-30.642425z m0 0"  horiz-adv-x="1024" />

    
    <glyph glyph-name="o-down" unicode="&#58887;" d="M508.68436385 748.29884681c-203.8339508 0-368.7674311-164.95896652-368.76743111-368.76743112 0-203.8339508 164.96260741-368.76743111 368.7674311-368.7674311 203.8339508 0 368.7674311 164.96139378 368.76743112 368.76743111 0 203.8339508-164.96260741 368.76743111-368.76743111 368.76743111zM508.68436385-78.09312236999995c-252.74201126 0-457.6257517 204.88738133-457.6257517 457.6257517s204.88738133 457.6257517 457.6257517 457.62575171c252.74201126 0 457.6257517-204.88738133 457.62575171-457.62575171 0-252.74686578-204.88738133-457.6257517-457.62575171-457.6257517zM702.84932741 504.03646578l71.32622696-71.67211141-267.70970548-266.43418074-267.70970548 266.43418074 71.32622696 71.67211141 196.38347852-195.45141097 196.38226489 195.45141097z"  horiz-adv-x="1024" />

    
    <glyph glyph-name="miaosha" unicode="&#58944;" d="M46.545039 634.657369c-8.299536 0-16.699067 2.199877-24.298641 6.79962-21.898776 13.399251-28.79839 41.997652-15.39914 63.896428C56.244497 785.948912 127.240529 850.245318 212.235777 891.34302c23.098709 11.199374 50.797161 1.499916 61.996535-21.598792 11.199374-23.098709 1.499916-50.797161-21.598793-61.996535-68.896149-33.298139-126.492929-85.395227-166.490693-150.791571-8.799508-14.49919-24.098653-22.298754-39.597787-22.298753z m929.54804 0c-15.699122 0-30.898273 7.799564-39.697781 22.198759-39.997764 65.396344-97.49455 117.493432-166.390699 150.791571-23.098709 11.199374-32.798167 38.897826-21.598793 61.996534 11.199374 23.098709 38.897826 32.798167 61.996535 21.598793 84.995249-41.097703 155.99128-105.494103 205.388519-185.889609 13.399251-21.898776 6.499637-50.497177-15.399139-63.896428-7.599575-4.599743-15.999106-6.79962-24.298642-6.79962zM821.601715 15.491979c94.894696 84.995249 154.591359 208.58834 154.591358 345.98066 0 256.685652-208.188363 464.77402-464.774019 464.77402S46.545039 618.058297 46.545039 361.472639c0-132.192611 55.196915-251.585937 143.791963-336.281202L127.04054-50.304343c-16.399083-19.598904-13.899223-48.997261 5.799676-65.496339 19.598904-16.399083 48.997261-13.899223 65.496338 5.799676l65.396345 77.99564c71.795987-45.197474 156.591247-71.296015 247.686155-71.296015 85.795204 0 166.19071 23.198703 235.186853 63.896429l53.49701-68.996144c9.199486-11.899335 22.998714-17.998994 36.797943-17.998993 9.899447 0 19.898888 3.199821 28.498407 9.699457 20.298865 15.699122 23.998659 44.89749 8.299536 65.196356l-52.097088 66.996255z m-403.277458 67.096249L464.821658 314.975238H325.42945l278.884411 325.381812L557.81646 407.97004h139.392208L418.324257 82.588228z"  horiz-adv-x="1024" />

    
    <glyph glyph-name="qianbao" unicode="&#58881;" d="M673.95974313 518.04943887c-9.81874578 5.66027407-20.19964903 10.37682965-30.3320624 15.53808712 2.00081897 2.2520246 3.73889041 3.83394118 5.45048341 5.44369406 17.58575253 16.55037794 33.37436635 35.6970001 41.62545315 58.28513951 4.00028004 10.95052901 4.98812926 15.71528892 7.76429103 25.88232792 5.16736787 32.099328-0.77194813 51.61664821-20.14058177 67.83910096-26.17494855 21.92549967-55.87356537 24.52174388-87.2457549 11.65051014-2.17666291-0.89211948-3.62075586-1.54389627-5.78995049 0.47796965-40.37893005 37.61566802-105.20356335 37.96667698-145.86153532 0.8269418-1.89965777-1.73535572-3.26838903-2.17394717-5.7342779-1.05574262-16.49877894 7.47710187-33.74234867 9.07802861-51.44352 5.47492504-33.54206309-6.82939868-61.28942315-34.93930958-56.36647157-73.32828362 4.27185372-33.3078308 17.37664081-62.13062257 39.97021169-86.97621803 4.63712029-5.09947446 9.56618227-9.94299072 14.55566938-15.10424818-1.24380738-0.59338846-2.47539395-1.21461321-3.72938532-1.78016537C261.27504733 479.23680992 183.3191485 366.28049744 174.19087876 237.79628186000002c-2.52427719-35.52930336-3.65877617-67.39236229 8.64215289-105.54846191 17.38410908-53.92366648 63.26987407-95.9938215 122.10902386-95.86007148 138.657365 0.31502545 277.31744573-0.0319099 415.97481071 0.17855968 44.54351216 0.06789342 78.83715536 19.76241544 103.71601861 55.62439655 12.64650654 18.23006105 17.22252276 39.20030035 22.00425603 60.6186362 1.94854102 8.72701966 4.21550218-8.34681653 4.21550217 28.66527903s-0.77194813 82.45655335-11.27505954 121.07161246c-25.52045602 93.8191954-80.17533458 166.24721233-165.61987717 215.50456435z m141.37174375-339.52410892c-3.04162503-19.81265657-6.33038209-40.5887207-17.49817002-57.2436545-21.97030931-32.76332561-64.06286918-50.75643863-103.39895636-50.81890058-122.44916987-0.19213838-244.90105546 0.12492388-367.34954641-0.16294419-51.96154676-0.12152921-100.97040888 28.79020292-113.56599535 78.92745359-7.99716544 31.83047008-7.13356118 71.65131624-4.90394142 104.11047937C216.67722042 370.72072683 322.8828906 481.41483069 424.79837583 528.90899071c1.10802054 0.5166689-29.3740863 27.23951732-33.47009607 31.89836349-19.95319594 22.69812673-32.41299558 41.07959009-36.18515376 71.50874007-4.63168882 37.35903091 23.30645174 48.38288482 40.21394904 51.94457342 15.63245896 3.29350959 48.81604481-13.38111331 50.49369113-11.79512311 35.90475395 33.93109237 93.15112419 33.6099565 128.8107829-0.75565372 1.91527326-1.84737985 3.19099055-1.25195458 5.11305314-0.43655466 27.70526614 11.75846066 51.13460497 19.0081196 74.25027619-1.02315378 17.10506715-14.82181157 17.50428043-25.83276574 13.30914628-49.10527076-2.5500767-9.65919625-18.36924255-35.48177797-24.40971973-43.48369594-22.32199721-29.5689404-44.17009837-48.43923636-45.67597434-49.91523922-0.16226527-0.1588706 47.71074002-22.63023331 55.71469478-28.72841992 73.90130405-56.29993601 123.72285034-99.84541498 146.26006967-185.55813655 11.84061171-45.03098689 23.18084891-88.85414992 16.10771288-134.93544794z m-347.88043052 240.99446834c-5.69286291 6.00856728-22.98260015 23.78645819-22.98260015 23.78645819h-33.91344006s0.11406094-11.59280074 0.11406093-15.04518093c0-3.45238019 84.54631268-86.70057077 84.5463127-86.70057077H410.55501615v-33.86591467h84.66037362v-34.11644139H410.66907708v-33.66495017h84.66987871v-67.87304767h33.91344007l-0.30348357 67.87304767h85.08742322v33.86795149H529.25239586l-0.30348357 33.91344007h84.97404121v33.86591467H528.94891228l84.97404122 86.70057077v15.04518093h-33.79937913s-29.44876905-28.48536149-35.89049634-35.57479196c-2.68518459-2.26696115-22.25953526-23.17677532-31.93909954-32.79184085l-44.84292213 44.57949568z"  horiz-adv-x="1024" />

    
    <glyph glyph-name="scan_icon" unicode="&#58896;" d="M39.78 495.11a27.77 27.77 0 0 1 27.78 27.78V828.44h305.55a27.78 27.78 0 1 1 0 55.56H39.78A27.77 27.77 0 0 1 12 856.22v-333.33a27.77 27.77 0 0 1 27.78-27.78zM373.11-60.440000000000055H67.56V245.11a27.78 27.78 0 1 1-55.56 0v-333.33A27.77 27.77 0 0 1 39.78-116h333.33a27.78 27.78 0 0 1 0 55.56zM984.22 884H650.89a27.78 27.78 0 1 1 0-55.56h305.55v-305.55a27.78 27.78 0 1 1 55.56 0V856.22A27.76 27.76 0 0 1 984.22 884zM984.22 272.89a27.76 27.76 0 0 1-27.78-27.78v-305.55H650.89a27.78 27.78 0 1 1 0-55.56h333.33a27.76 27.76 0 0 1 27.78 27.78V245.11a27.76 27.76 0 0 1-27.78 27.78zM984.22 411.78H39.78a27.78 27.78 0 0 1 0-55.56h944.44a27.78 27.78 0 0 1 0 55.56z"  horiz-adv-x="1024" />

    
    <glyph glyph-name="shoucangjia" unicode="&#59863;" d="M88.064 640.704c-12.704-19.072-16.224-24.96-18.944-30.912-1.92-4.224-2.976-7.744-3.712-12.32C64.352 591.04 64 584.16 64 561.28v-461.184c0-42.368 2.496-55.264 9.536-68.416 5.184-9.728 12.416-16.96 22.144-22.144 13.152-7.04 26.048-9.536 68.416-9.536h695.808c42.368 0 55.264 2.496 68.416 9.536 9.728 5.184 16.96 12.416 22.144 22.144 7.04 13.152 9.536 26.048 9.536 68.416V475.904c0 42.368-2.496 55.264-9.536 68.416a52.32 52.32 0 0 1-22.144 22.144c-13.152 7.04-26.048 9.536-68.416 9.536H368a64 64 0 0 0-64 64V696A56 56 0 0 1 248 752H200.864c-21.408 0-26.976-0.576-32.352-2.208a20.896 20.896 0 0 1-7.904-4.224c-4.32-3.552-7.904-7.904-19.776-25.696l-52.8-79.168zM344 768h395.744a160 160 0 0 0 151.776-109.408l6.56-19.648c25.76-1.856 42.368-6.4 60.448-16.032 20.864-11.168 37.216-27.52 48.384-48.384 13.728-25.664 17.088-48.448 17.088-98.624v-375.808c0-50.176-3.36-72.96-17.088-98.624a116.32 116.32 0 0 0-48.384-48.384c-25.664-13.728-48.448-17.088-98.624-17.088H164.096c-50.176 0-72.96 3.36-98.624 17.088a116.32 116.32 0 0 0-48.384 48.384C3.36 27.136 0 49.92 0 100.096V561.28c0 25.472 0.384 35.2 2.24 46.528 1.664 10.112 4.384 19.072 8.64 28.416 4.704 10.432 9.792 18.784 23.904 40l52.8 79.136c14.656 21.984 21.184 30.4 32.256 39.552 9.088 7.52 18.944 12.8 30.24 16.192 13.76 4.128 24.384 4.896 50.784 4.896H248c39.264 0 74.112-18.88 96-48z m23.744-64c0.16-2.656 0.256-5.312 0.256-8V640h462.24a96 96 0 0 1-90.496 64H367.744z m331.52-265.376c48.96-53.504 48.992-139.168 0.032-192.64l-124.096-135.552a64 64 0 0 0-94.4 0l-124.096 135.552c-48.96 53.472-48.96 139.136 0.064 192.64 46.4 50.72 120.416 54.816 171.232 12.256 50.816 42.56 124.8 38.464 171.264-12.256z m-194.88-55.04l-10.848 11.904c-25.056 27.36-64.48 27.36-89.6-0.064-26.56-29.088-26.56-77.216 0-106.24l124.064-135.552 124.096 135.552c26.56 29.024 26.56 77.184-0.064 106.24-25.088 27.424-64.512 27.424-89.568 0.064l-10.88-11.872a32 32 0 0 0-47.2 0z"  horiz-adv-x="1024" />

    
    <glyph glyph-name="zuobian" unicode="&#58888;" d="M512 704.0128c-176.7168 0-319.9872-143.2704-319.9872-320C192 207.2576 335.2832 64 512 64c176.7296 0 320 143.2576 320 320.0128 0.0128 176.7296-143.2576 320-320 320z m0-32c159.0656 0 288-128.9344 288-288S671.0656 96 512 96 224 224.9472 224 384.0128s128.9472 288 288 288zM612.1472 548.7744L447.36 384.0128l164.8-164.7744a16.6912 16.6912 0 0 0-23.5776-23.5776L412.9408 371.2896c-0.3456 0.2944-0.8064 0.4224-1.1136 0.7552a16.5376 16.5376 0 0 0-4.8512 11.9936 16.5504 16.5504 0 0 0 4.8384 11.9552c0.3328 0.3328 0.7808 0.448 1.1136 0.7552l175.6288 175.6288a16.704 16.704 0 0 0 23.5776 0.0128c6.5024-6.5536 6.5024-17.1008 0.0128-23.616z"  horiz-adv-x="1024" />

    
    <glyph glyph-name="wode-copy" unicode="&#58882;" d="M820.225293 31.634100999999987H201.399596c-12.792242 0-25.584485 6.396121-33.578667 15.99095-7.995475 11.192889-11.192889 23.985131-7.995474 36.777373C191.806061 247.50286900000003 324.525253 369.03046500000005 484.428283 381.82270700000004c6.396121 1.598061 11.192889 1.598061 19.188363 1.598061v-15.99095c-6.396121 0-11.192889 0-17.58901-1.59806-153.508202-11.192889-281.430626-127.922424-311.811878-284.628041-1.599354-7.995475 0-17.58901 6.396121-23.985131 4.796768-6.396121 12.792242-9.593535 20.786424-9.593535h618.825697c7.995475 0 15.989657 3.197414 20.787717 9.593535 4.798061 6.396121 7.995475 14.391596 6.396121 23.985131-19.188364 102.337939-81.550222 190.284283-169.496565 239.855192-9.594828 6.396121-20.787717 11.192889-30.382546 15.99095l6.396121 14.390303c11.192889-4.796768 22.385778-11.192889 31.980607-15.989657 92.743111-52.768323 156.704323-143.913374 177.49204-251.048081 3.198707-12.792242 0-25.584485-9.593535-36.777373-7.992889-9.594828-20.786424-15.990949-33.578667-15.99095zM508.414707 367.431111h-3.198707v15.99095h4.798061l-1.599354-15.99095zM514.810828 367.431111c-100.738586 0-183.888162 83.149576-183.888161 183.888162s83.149576 183.888162 183.888161 183.888161S698.69899 652.057859 698.69899 551.3192730000001s-83.149576-183.888162-183.888162-183.888162z m0 351.786667c-92.743111 0-167.898505-75.155394-167.898505-167.898505s75.154101-167.898505 167.898505-167.898505 167.898505 75.154101 167.898505 167.898505S607.555232 719.217778 514.810828 719.217778z"  horiz-adv-x="1024" />

    
    <glyph glyph-name="qiajuan" unicode="&#58994;" d="M937.22112 71.59296c28.71296 0 52.06784 23.35744 52.06784 52.06784v108.03456c-69.4912 15.81312-121.48992 78.10304-121.48992 152.30464s52.00128 136.48896 121.48992 152.33792V644.33664c0 28.71296-23.35488 52.0704-52.06784 52.0704H86.77888c-28.71296 0-52.06784-23.35744-52.06784-52.0704v-108.00128c69.49376-15.8464 121.49248-78.13376 121.49248-152.33792s-52.00128-136.49152-121.49248-152.30464v-108.03456c0-28.7104 23.35744-52.06784 52.06784-52.06784h850.44224m0-34.70848H86.77888C38.86336 36.88192 0 75.74528 0 123.6608v138.84672c67.11808 0 121.49248 54.38976 121.49248 121.49248 0 67.10016-54.37184 121.48992-121.49248 121.48992V644.33664c0 47.91808 38.86336 86.77888 86.77888 86.77888h850.43968c47.91552 0 86.77888-38.86336 86.77888-86.77888v-138.84672c-67.11808 0-121.49248-54.38976-121.49248-121.48992 0-67.10272 54.3744-121.49248 121.49248-121.49248v-138.84672c0.00256-47.91552-38.86336-86.77888-86.77632-86.77888zM329.76128 488.13568h-34.71104v138.84672h34.71104v-138.84672z m0-208.27136h-34.71104V418.7136h34.71104v-138.84928z m0-173.56032h-34.71104v104.13568h34.71104v-104.13568zM578.32192 333.66016c-6.05184-18.28864-14.15168-32.86272-24.30464-43.74528-14.13632-13.62688-34.1376-26.13504-60.06784-37.45792l20.83072-26.03264c29.60896 14.35392 51.8144 30.40512 66.64448 48.23552 11.57376 14.81472 20.83072 34.49344 27.76064 59.00032h78.47424c-1.42336-30.32064-4.30592-50.69568-8.6784-61.09952-4.20352-9.2544-12.72832-13.88288-25.71264-13.88288-9.00096 0-25.1008 0.47616-48.23552 1.408l8.67584-30.91456h55.54432c13.88032 0.72704 24.18432 4.98176 30.88128 12.87936 6.73024 8.08448 11.45856 22.08512 14.23872 41.96864 2.32192 19.67872 3.95008 42.49088 4.84864 68.37248 13.20192-10.62656 28.45696-21.03552 45.81376-31.23712l21.55776 26.76224c-36.35456 16.88064-62.96576 35.38944-79.8464 55.54176h68.37248v29.82912h-168.01792a486.53568 486.53568 0 0 1 15.61088 31.23712h133.3248v29.18656h-48.59392c9.9328 12.93056 18.6112 28.30592 26.0352 46.13376l-27.44064 9.728c-6.9504-17.8304-15.7312-33.6768-26.37568-47.55712l15.25504-8.30464h-61.42464c5.10464 16.1536 9.3568 33.76128 12.83328 52.74624l-32.61184 4.15232c-3.00032-19.66336-7.52384-38.64576-13.55776-56.89856h-46.13376l18.03264 8.30464a322.9184 322.9184 0 0 1-23.96416 46.16704l-28.45696-9.35424c9.25184-14.83008 17.35424-29.86496 24.30464-45.11744H493.5936v-29.18656h94.77888a263.91552 263.91552 0 0 0-17.728-31.23712h-96.13568v-29.82912h72.20224c-22.45376-23.61088-50.33728-42.49344-83.65824-56.59136l18.06848-27.7632a325.45024 325.45024 0 0 1 53.81376 32.60928v-18.05312h43.38688z m94.03392 69.7984c8.57856-13.45792 19.68128-26.5088 33.33888-39.23712h-155.50976a309.00992 309.00992 0 0 1 36.81536 39.23712h85.35552z"  horiz-adv-x="1024" />

    
    <glyph glyph-name="youbian" unicode="&#59290;" d="M325.399273 660.875636L600.157091 407.272727 325.399273 153.646545a34.909091 34.909091 0 1 1 47.36-51.316363l302.545454 279.272727a34.909091 34.909091 0 0 1 0 51.316364l-302.545454 279.272727a34.909091 34.909091 0 1 1-47.36-51.316364"  horiz-adv-x="1024" />

    
    <glyph glyph-name="ziyuan" unicode="&#58922;" d="M1023.83363948-11.5078125H215.36914062a98.87695313 98.87695313 0 0 0-98.87695312 98.87695313V779.5078125h907.34145198a98.87695313 98.87695313 0 0 0 98.87695312-98.87695313v-67.87611994a17.44887385 17.44887385 0 0 0-34.8977477 0V680.63085938a63.97920465 63.97920465 0 0 1-63.97920542 63.97920464H151.38993597v-657.2409234a63.97920465 63.97920465 0 0 1 63.97920465-63.97920465h808.46449886a63.97920465 63.97920465 0 0 1 63.97920542 63.97920465V531.3266601600001a17.44887385 17.44887385 0 1 0 34.8977477 0V87.36914062000005a98.87695313 98.87695313 0 0 0-98.87695312-98.87695312zM627.10440615 298.38419131L216.00893245 632.1811523399999a17.44887385 17.44887385 0 1 0 21.98558176 27.10391788l391.9017113-318.20930059 464.14005069 284.99827706a17.44887385 17.44887385 0 1 0 18.26315491-29.72124877z"  horiz-adv-x="1302" />

    
    <glyph glyph-name="zuobian1" unicode="&#59087;" d="M650.9 599.9c0 25.1-33.5 41.1-52.7 21.9L382.3 405.9c-12.4-12.4-12.4-30.8 0-43.2l215.8-215.8c18.7-18.7 52.7-4.1 52.7 21.6V599.9z m0 0"  horiz-adv-x="1024" />

    
    <glyph glyph-name="zuobian2" unicode="&#58889;" d="M675.328 130.37381800000003L400.57018201 384l274.75781799 253.626182a34.909091 34.909091 0 1 1-47.36 51.316363l-302.545455-279.272727a34.909091 34.909091 0 0 1 0-51.316363l302.545455-279.272728a34.909091 34.909091 0 1 1 47.36 51.316364"  horiz-adv-x="1024" />

    
    <glyph glyph-name="xia1" unicode="&#58897;" d="M795.88500214 514.35535812c0 5.9304446-2.26238965 11.86161339-6.78716899 16.38711691-9.05028284 9.04955864-23.72395098 9.04955864-32.77423382-1e-8L512 286.4181515 267.67640067 530.7424750299999c-9.05028284 9.04955864-23.72322679 9.04955864-32.77350963 0-9.05028284-9.05100703-9.05028284-23.72322679 0-32.77423381l260.71071624-260.71071624c9.05028284-9.04955864 23.72322679-9.04955864 32.77350963 0l260.71071625 260.71071624C793.62261248 502.49374473 795.88500214 508.42491353 795.88500214 514.35535812z"  horiz-adv-x="1024" />

    
    <glyph glyph-name="pengyou" unicode="&#58955;" d="M106.345 9.743a29.455 29.455 0 0 0-29.41 29.425c0 74.722 23.613 145.664 68.292 205.161a346.308 346.308 0 0 0 76.605 74.451 338.522 338.522 0 0 0 78.336 41.442 219.934 219.934 0 0 0-64.573 66.214 215.612 215.612 0 0 0-33.024 115.034c0 119.808 97.461 217.254 217.269 217.254 119.793 0 217.254-97.46 217.254-217.254 0-73.336-36.021-140.198-96.798-180.646a343.913 343.913 0 0 0 77.04-40.93 341.986 341.986 0 0 0 76.59-74.586 338.839 338.839 0 0 0 68.427-205.161c0-16.219-13.192-29.425-29.41-29.425s-29.425 13.206-29.425 29.425c0 75.7-29.455 146.914-82.929 200.493-51.938 52.194-120.681 81.74-193.536 83.185l-0.798-0.361c-2.319-0.467-4.518-0.738-6.64-0.738-0.844 0-1.657 0.045-2.47 0.12-74.3-0.015-144.927-29.56-198.446-83.185-53.474-53.85-82.929-125.063-82.929-200.493a29.47 29.47 0 0 0-29.425-29.425z m313.6 690.161c-87.356 0-158.418-71.063-158.418-158.419s71.062-158.419 158.418-158.419S578.38 454.13 578.38 541.486s-71.077 158.418-158.434 158.418z m479.88-626.206a29.455 29.455 0 0 0-29.425 29.41c0 130.123-99.132 235.987-220.988 235.987a29.47 29.47 0 1 0 0 58.955c66.65 0 120.877 58.232 120.877 129.792 0 71.574-54.242 129.807-120.877 129.807-16.219 0-29.41 13.191-29.41 29.425s13.191 29.425 29.41 29.425c99.102 0 179.727-84.63 179.727-188.642 0-33.416-8.433-66.184-24.365-94.75a186.488 186.488 0 0 0-48.987-57.284c47.752-20.66 89.073-54.844 119.869-99.268 35.192-50.823 53.714-110.787 53.609-173.462a29.47 29.47 0 0 0-29.44-29.395z"  horiz-adv-x="1024" />

    
    <glyph glyph-name="xing1" unicode="&#58891;" d="M351.88675211 124.44799805000002c-3.74533901 0-7.20977815 1.68540281-9.64424847 4.49440725-2.43447032 2.80900444-3.37080489 6.55434345-2.80900445 10.29968244l29.40091235 171.53653199L244.20825178 432.12760811c-3.46443842 3.37080489-4.68167358 8.33337978-3.18353783 12.92141984s5.43074182 7.86521214 10.20604893 8.61427964l172.19196669 25.00013937 76.96671928 156.08700829c2.15356973 4.30714019 6.55434345 7.02251109 11.32965056 7.02251037s9.17608083-2.71537091 11.32965128-7.02251037L600.01546997 478.66344696l172.28559949-25.00013937c4.77530711-0.6554347 8.70791318-4.0262396 10.20604967-8.61427964 1.49813574-4.58804077 0.28090059-9.55061494-3.18353857-12.92141984L654.69742081 310.6849862l29.40091235-171.53653198c0.84270104-4.77530711-1.12360163-9.55061494-5.05620769-12.35961938s-8.98881378-3.18353856-13.29595397-0.93633457l-154.02707208 80.99295888-154.02707137-80.99295888c-1.77903634-0.93633457-3.74533901-1.40450223-5.80527594-1.40450222zM280.16350758 432.40850797L391.21281279 324.16820721c2.9962715-2.90263797 4.30714019-7.11614462 3.65170548-11.1423835l-26.21737379-152.80983693 137.26667971 72.09777864c3.65170549 1.9663034 8.05247919 1.9663034 11.70418469 0l137.26667898-72.19141217-26.21737378 152.80983693c-0.6554347 4.11987312 0.6554347 8.23974625 3.65170547 11.1423835l111.04930523 108.24030149-153.46527092 22.28476773c-4.11987312 0.56180117-7.67794508 3.18353856-9.45698143 6.92887684l-68.6333395 139.04571533-68.63333948-139.04571533c-1.87266986-3.74533901-5.43074182-6.27344287-9.45698142-6.92887684l-153.55890445-22.19113493z m0 0"  horiz-adv-x="1024" />

    
    <glyph glyph-name="gengduo" unicode="&#58920;" d="M256-55.4l430.186 421.25c10.234 10.03 10.234 26.28 0 36.301L256 823.41V896l504.32-493.85c10.24-10.021 10.24-26.275 0-36.301L256-128v72.6z"  horiz-adv-x="1024" />

    
    <glyph glyph-name="wodedangxuan" unicode="&#58884;" d="M907.264-70.65599999999995H114.688c-16.384 0-32.768 8.192-43.008 20.48-10.24 14.336-14.336 30.72-10.24 47.104 40.96 208.896 210.944 364.544 415.744 380.928 68.608 0 142.848-8.704 217.088-38.912 21.504-8.704 28.672-14.336 40.96-20.48 118.784-67.584 200.704-184.32 227.328-321.536 4.096-16.384 0-32.768-12.288-47.104-10.24-12.288-26.624-20.48-43.008-20.48zM115.712-37.375999999999976c-6.656 0-12.8 2.56-16.384 7.168-0.512 0.512-0.512 1.024-1.024 1.536-5.12 5.12-5.632 13.824-4.608 18.944 37.888 194.56 197.12 340.48 387.584 354.304h15.36c91.648 0 179.712-28.672 222.72-55.808C832 221.18399999999997 907.264 115.20000000000005 930.816-9.727999999999952c1.024-7.168-0.512-13.824-5.632-20.48-3.584-4.608-9.728-7.168-16.384-7.168H115.712zM496.64 332.288c89.088 0 174.592-27.648 216.064-53.76h0.512c109.568-65.024 182.272-167.936 204.8-289.792 0.512-2.56 0.512-6.144-3.584-10.752-0.512-1.024-3.072-2.048-6.144-2.048H115.712c-3.072 0-5.632 1.024-6.144 2.048-0.512 1.024-1.536 2.048-2.56 2.56-1.024 1.024-2.048 4.096-1.024 7.68 36.864 188.928 190.976 330.24 375.808 344.064 4.608-0.512 9.728 0 14.848 0m0 25.6c-5.12 0-10.752 0-15.872-0.512C284.16 343.03999999999996 120.32 193.53599999999994 81.408-7.168000000000006c-2.048-10.24 0-22.528 8.192-30.72 6.144-8.192 16.384-12.288 26.624-12.288H908.8c10.24 0 20.48 4.096 26.624 12.288 6.144 8.192 10.24 18.432 8.192 30.72-24.576 131.072-102.4 238.592-217.088 307.2-43.52 27.136-132.608 57.856-229.888 57.856zM512 359.424c-129.024 0-235.52 106.496-235.52 235.52S382.976 830.4639999999999 512 830.4639999999999s235.52-106.496 235.52-235.52S641.024 359.424 512 359.424zM512 392.704c-111.616 0-202.24 90.624-202.24 202.24S400.384 797.184 512 797.184s202.24-90.624 202.24-202.24-90.624-202.24-202.24-202.24zM512 784.384c104.448 0 189.44-84.992 189.44-189.44S616.448 405.504 512 405.504s-189.44 84.992-189.44 189.44 84.992 189.44 189.44 189.44m0 25.6c-118.784 0-215.04-96.256-215.04-215.04s96.256-215.04 215.04-215.04 215.04 96.256 215.04 215.04S630.784 809.984 512 809.984z"  horiz-adv-x="1024" />

    
    <glyph glyph-name="jiashang" unicode="&#58916;" d="M808.407 440.32v-112.64c0-8.479-6.871-15.36-15.36-15.36h-208.21v-208.21c0-8.489-6.881-15.36-15.36-15.36h-112.64c-8.479 0-15.36 6.871-15.36 15.36V312.32h-208.21c-8.489 0-15.36 6.881-15.36 15.36V440.32c0 8.479 6.871 15.36 15.36 15.36h208.21V663.89c0 8.489 6.881 15.36 15.36 15.36h112.64c8.479 0 15.36-6.871 15.36-15.36v-208.21h208.21c8.489 0 15.36-6.881 15.36-15.36z"  horiz-adv-x="1024" />

    
    <glyph glyph-name="shang" unicode="&#58924;" d="M537.14 595.052l296.672-384a31.936 31.936 0 0 0-25.28-51.552H215.028a32 32 0 0 0-25.28 51.552l296.704 384a32 32 0 0 0 50.656 0"  horiz-adv-x="1024" />

    
    <glyph glyph-name="koubei" unicode="&#58910;" d="M577.324768 61.030692c-20.191292 0-36.636688 16.445396-36.636688 36.636688v42.940757l-2.832263 1.09636c-82.135617 32.616702-137.867238 92.642398-170.20985 137.227694-37.733048 51.985724-64.045682 111.280514-70.34975 158.60671-7.126338 51.985724-0.365453 206.024268-0.091363 212.602427v0.182726c0.091363 31.885796 25.216274 56.82798 57.10207 56.82798H953.832976c31.337616 0 57.010707-25.490364 57.10207-56.82798v-0.182726c0.27409-6.486795 7.034975-159.885796 1.004997-212.511064-3.106353-27.957173-14.34404-66.147038-23.937188-89.536046-47.600286-109.179158-119.320485-189.213419-212.96788-238.001427-85.24197-44.311206-164.453961-49.153462-194.603854-49.153462h-3.106353z m5.938615 42.575304l4.568166 0.091363c74.917916 2.101356 260.019986 31.703069 359.514632 261.299072 7.674518 18.364026 17.907209 53.356174 21.013562 78.115632 5.755889 38.463954 2.466809 151.206281 0 205.658815V650.232691c0 7.948608-6.486795 14.526767-14.526767 14.526767H354.306924c-7.948608 0-14.526767-6.486795-14.526767-14.435404v-0.456816c-2.375446-50.615275-4.842256-166.829408 0-205.567452 3.471806-29.23626 21.470378-82.957887 60.573876-137.867238 29.693076-41.753034 81.404711-97.576017 158.698073-126.35546l24.302641-8.496788v-67.974304zM644.842256 244.214133c-129.09636 0-234.072805 104.976445-234.072806 234.072805 0 11.511777 9.775874 21.287652 21.287652 21.287652 11.511777 0 21.287652-9.775874 21.287652-21.287652 0-105.615989 85.881513-191.497502 191.497502-191.497502 62.675232 0 121.604568 31.154889 157.784439 83.414704 4.202712 5.938615 10.872234 9.501784 17.724483 9.501784 4.294076 0 8.496788-1.37045 12.15132-3.928622 9.958601-7.126338 12.334047-20.191292 5.481799-29.78444-43.945753-63.771592-116.122769-101.778729-193.142041-101.778729zM877.087794 450.877944c-7.309065 0-14.526767 1.91863-20.830835 5.573162-12.882227 7.400428-20.830835 21.287652-20.830835 36.179872 0 23.023555 18.729479 41.753034 41.753034 41.753033 23.023555 0 41.753034-18.729479 41.753033-41.753033 0-14.89222-8.039971-28.68808-20.830835-36.179872-6.486795-3.654532-13.704497-5.573162-21.013562-5.573162z"  horiz-adv-x="1308" />

    
    <glyph glyph-name="weizhi" unicode="&#58904;" d="M511.5 384c-72.8 0-130 57.2-130 130s57.2 130 130 130 130-57.2 130-130-57.2-130-130-130Zm0.5 448c-174.7 0-313.5-138.9-313.5-313.6C198.5 285.4 512-64 512-64s313.5 349.4 313.5 582.4C825.5 693.1 686.7 832 512 832Z"  horiz-adv-x="1024" />

    
    <glyph glyph-name="shezhi" unicode="&#58998;" d="M905.6 267.2c-6.4 20.8-19.2 38.4-38.4 49.6l-54.4 32c1.6 12.8 1.6 24 1.6 35.2 0 11.2 0 22.4-1.6 35.2l54.4 32c40 22.4 52.8 73.6 30.4 112l-36.8 64c-11.2 19.2-28.8 32-49.6 38.4-20.8 6.4-43.2 3.2-62.4-8l-54.4-30.4c-19.2 14.4-40 25.6-60.8 35.2v62.4c0 44.8-36.8 83.2-83.2 83.2h-73.6c-44.8 0-83.2-36.8-83.2-83.2v-62.4c-22.4-9.6-43.2-20.8-60.8-35.2l-54.4 30.4c-40 22.4-89.6 9.6-112-30.4l-36.8-64c-11.2-19.2-14.4-41.6-8-62.4 6.4-20.8 19.2-38.4 38.4-49.6l54.4-32c-1.6-12.8-1.6-24-1.6-35.2 0-11.2 0-22.4 1.6-35.2l-54.4-32c-19.2-11.2-32-28.8-38.4-49.6-8-20.8-4.8-43.2 6.4-62.4l36.8-64c11.2-19.2 28.8-32 49.6-38.4 20.8-6.4 43.2-3.2 62.4 8l54.4 30.4c19.2-14.4 40-25.6 60.8-35.2v-62.4c0-44.8 36.8-83.2 83.2-83.2h73.6c44.8 0 83.2 36.8 83.2 83.2v62.4c22.4 9.6 43.2 20.8 60.8 35.2l54.4-30.4c19.2-11.2 41.6-14.4 62.4-8 20.8 6.4 38.4 19.2 49.6 38.4l36.8 64c11.2 19.2 14.4 41.6 9.6 62.4z m-49.6-38.4l-36.8-64c-4.8-8-12.8-12.8-20.8-16-9.6-1.6-17.6-1.6-25.6 3.2l-57.6 33.6c-14.4 8-32 6.4-46.4-3.2-17.6-12.8-36.8-24-57.6-33.6-16-6.4-25.6-22.4-25.6-38.4v-67.2c0-19.2-16-35.2-35.2-35.2h-73.6c-19.2 0-35.2 16-35.2 35.2v67.2c0 17.6-9.6 32-25.6 38.4-20.8 8-40 19.2-57.6 33.6-8 6.4-16 8-25.6 8-6.4 0-14.4-1.6-20.8-4.8l-57.6-33.6c-8-4.8-17.6-6.4-25.6-3.2s-16 8-20.8 16l-36.8 64c-4.8 8-6.4 17.6-3.2 25.6 1.6 9.6 8 16 16 20.8l57.6 33.6c14.4 8 22.4 24 20.8 41.6-1.6 11.2-1.6 22.4-1.6 33.6s0 20.8 1.6 33.6c1.6 16-4.8 33.6-20.8 41.6l-57.6 33.6c-8 4.8-14.4 12.8-16 20.8s-1.6 17.6 3.2 25.6l36.8 64c9.6 16 30.4 22.4 46.4 12.8l57.6-33.6c14.4-8 32-6.4 46.4 3.2 17.6 12.8 36.8 24 57.6 33.6 16 6.4 25.6 22.4 25.6 38.4v67.2c0 19.2 16 35.2 35.2 35.2h73.6c19.2 0 35.2-16 35.2-35.2v-67.2c0-17.6 9.6-32 25.6-38.4 20.8-8 40-19.2 57.6-33.6 12.8-9.6 32-11.2 46.4-3.2l57.6 33.6c16 9.6 36.8 3.2 46.4-12.8l36.8-64c9.6-16 3.2-36.8-12.8-46.4L784 459.2c-14.4-8-22.4-24-20.8-41.6 1.6-11.2 1.6-22.4 1.6-33.6 0-11.2 0-20.8-1.6-33.6-1.6-17.6 4.8-33.6 20.8-41.6l57.6-33.6c8-4.8 12.8-12.8 16-20.8 3.2-8 1.6-17.6-1.6-25.6zM512 536c-83.2 0-152-68.8-152-152s68.8-152 152-152 152 68.8 152 152c0 84.8-67.2 152-152 152z m0-256c-57.6 0-104 46.4-104 104s46.4 104 104 104 104-46.4 104-104-46.4-104-104-104z"  horiz-adv-x="1024" />

    
    <glyph glyph-name="sousuo1" unicode="&#58948;" d="M621.8752 237.8752a25.6 25.6 0 0 0 36.2496 36.2496l179.2-179.2a25.6 25.6 0 0 0-36.2496-36.2496l-179.2 179.2zM460.8 153.6a281.6 281.6 0 1 0 0 563.2 281.6 281.6 0 0 0 0-563.2z m0 51.2a230.4 230.4 0 1 1 0 460.8 230.4 230.4 0 0 1 0-460.8z"  horiz-adv-x="1024" />

    
    <glyph glyph-name="sousuo" unicode="&#58950;" d="M655.918545 174.266182A325.911273 325.911273 0 0 0 230.4 665.6a325.818182 325.818182 0 0 0 476.625455-443.717818l140.474181-140.474182a34.909091 34.909091 0 0 0-49.338181-49.338182l-142.24291 142.196364z m-14.103272 79.918545A256 256 0 1 1 279.738182 616.261818a256 256 0 0 1 362.077091-362.077091z"  horiz-adv-x="1024" />

    
    <glyph glyph-name="huidingbu" unicode="&#58883;" d="M868.352 362.5984A482.2016 482.2016 0 0 1 880.64 471.04c0 86.528-35.328 159.8464-84.1728 220.16H206.848A362.496 362.496 0 0 1 133.12 471.04a479.8464 479.8464 0 0 1 13.5168-112.64C77.312 322.56 5.2224 253.8496 0 117.76c0 0 119.5008 74.5472 243.6096 51.2a389.12 389.12 0 0 1 55.5008-51.2h415.5392A395.1616 395.1616 0 0 1 768 166.912c128.512 30.72 256-49.152 256-49.152-5.4272 142.0288-83.7632 211.1488-155.648 244.8384zM506.88 256A158.72 158.72 0 1 0 665.6 414.72a158.72 158.72 0 0 0-158.72-158.72zM506.88 896S351.6416 849.1008 241.2544 732.16h518.144C650.24 840.9088 506.88 896 506.88 896zM371.2 76.8c-19.7632 0-35.84-45.8752-35.84-102.4a186.0608 186.0608 0 0 1 35.84-102.4 186.0608 186.0608 0 0 1 35.84 102.4c0 56.5248-16.0768 102.4-35.84 102.4zM512 76.8c-19.7632 0-35.84-45.8752-35.84-102.4a186.0608 186.0608 0 0 1 35.84-102.4 186.0608 186.0608 0 0 1 35.84 102.4c0 56.5248-16.0768 102.4-35.84 102.4zM647.68 76.8c-19.7632 0-35.84-45.8752-35.84-102.4a186.0608 186.0608 0 0 1 35.84-102.4 186.0608 186.0608 0 0 1 35.84 102.4c0 56.5248-16.0768 102.4-35.84 102.4z"  horiz-adv-x="1024" />

    
    <glyph glyph-name="icon-test1" unicode="&#58898;" d="M512 58.6c-28.8 0-55.8 11.6-76 32.7-0.3 0.3-0.6 0.7-0.9 1l-236 268.8c-0.2 0.2-0.3 0.4-0.5 0.6-26.7 32-43.3 70.8-48.1 112.2-4.5 38.7 1.3 78.2 16.8 114.1 14.4 33.3 36.6 62 64.2 82.9 29.8 22.6 65.7 35.8 103.6 38.1 4.5 0.3 9.1 0.4 13.6 0.4 37.5 0 74.8-9.6 107.7-27.8 20.4-11.3 39.2-25.8 55.5-42.8 16.4 17.1 35.1 31.6 55.5 42.8 33 18.2 70.2 27.8 107.7 27.8 4.5 0 9.1-0.1 13.6-0.4 37.9-2.3 73.7-15.5 103.6-38.1 27.6-20.9 49.8-49.6 64.2-82.9 15.5-35.9 21.4-75.4 16.8-114.1-4.8-41.4-21.5-80.2-48.1-112.2-0.2-0.2-0.3-0.4-0.5-0.6L589 92.3c-0.3-0.3-0.6-0.7-0.9-1-20.3-21.1-47.3-32.7-76.1-32.7z m-32.4 73.8c8.8-8.9 20.3-13.8 32.4-13.8s23.6 4.9 32.4 13.8l235.1 267.9c37.7 45.5 46.1 108.2 22.1 163.8-21.7 50.1-65.2 81.8-116.4 85-3.3 0.2-6.7 0.3-10 0.3-54.6 0-106.4-28-138.5-75-5.6-8.2-14.9-13.1-24.8-13.1s-19.2 4.9-24.8 13.1c-32.1 46.9-83.9 75-138.5 75-3.3 0-6.7-0.1-10-0.3-51.2-3.1-94.7-34.9-116.4-85-24-55.6-15.6-118.3 22.1-163.8l235.3-267.9z"  horiz-adv-x="1024" />

    
    <glyph glyph-name="bao" unicode="&#58894;" d="M1032.356253-6.372688l-58.26458 442.082503-19.664296 150.031295c-2.913229 24.762447-24.762447 42.970128-49.524893 42.970128h-121.627312c-1.456615 71.374111-31.317212 135.465149-77.928876 182.80512C656.54971 859.584637 590.27375 890.173542 516.714717 890.173542 371.781573 890.173542 253.067491 772.916074 250.154262 629.439545H128.52695c-24.762447 0-45.883357-18.935989-49.524893-42.970128L59.337761 435.709815l-58.26458-442.082503c-4.369844-30.588905 5.098151-61.906117 26.219061-85.211949 20.392603-23.305832 50.253201-36.415363 80.842105-36.415363h817.16074c31.317212 0 60.449502 13.109531 80.842105 36.415363 21.12091 23.305832 30.588905 54.623044 26.219061 85.211949zM516.714717 868.324324c64.819346 0 125.997155-25.490754 172.608819-72.102418 44.426743-44.426743 69.189189-101.963016 71.374111-163.869132H272.00348c5.098151 131.095306 112.887624 235.97155 244.711237 235.97155zM100.851275 582.827881c2.184922 13.837838 13.837838 24.034139 27.675675 24.034139h776.375534c13.837838 0 25.490754-10.196302 27.675675-24.034139l18.935989-144.204837-90.310099-76.472262c-96.136558-81.570413-218.492176-126.725462-344.489332-126.725462-62.634424 0-124.540541 10.924609-183.533428 32.773827-58.992888 21.849218-112.887624 53.16643-160.955903 93.951635L81.915286 438.623044 100.851275 582.827881zM990.114433-77.018492c-16.02276-18.935989-40.056899-29.13229-64.819346-29.13229H108.134347c-24.762447 0-48.068279 10.924609-64.819345 29.13229-16.02276 18.935989-24.034139 43.698435-20.392604 67.732575l55.351352 422.418207 79.385491-67.732574c50.253201-42.241821 106.332859-75.015647 167.510668-97.593173 61.177809-22.577525 125.268848-34.230441 190.816501-34.230441 131.095306 0 258.549075 46.611664 358.327169 131.823614l79.385491 67.732574 55.351351-422.418207c5.098151-24.762447-2.913229-49.524893-18.935988-67.732575z"  horiz-adv-x="1037" />

    
    <glyph glyph-name="bao-copy" unicode="&#59864;" d="M1032.356253-6.372688000000039l-58.26458 442.082503-19.664296 150.031295c-2.913229 24.762447-24.762447 42.970128-49.524893 42.970128h-121.627312c-1.456615 71.374111-31.317212 135.465149-77.928876 182.80512C656.54971 859.584637 590.27375 890.173542 516.714717 890.173542 371.781573 890.173542 253.067491 772.916074 250.154262 629.439545H128.52695c-24.762447 0-45.883357-18.935989-49.524893-42.970128L59.337761 435.709815l-58.26458-442.082503c-4.369844-30.588905 5.098151-61.906117 26.219061-85.211949 20.392603-23.305832 50.253201-36.415363 80.842105-36.415363h817.16074c31.317212 0 60.449502 13.109531 80.842105 36.415363 21.12091 23.305832 30.588905 54.623044 26.219061 85.211949zM516.714717 868.324324c64.819346 0 125.997155-25.490754 172.608819-72.102418 44.426743-44.426743 69.189189-101.963016 71.374111-163.869132H272.00348c5.098151 131.095306 112.887624 235.97155 244.711237 235.97155zM100.851275 582.8278809999999c2.184922 13.837838 13.837838 24.034139 27.675675 24.034139h776.375534c13.837838 0 25.490754-10.196302 27.675675-24.034139l18.935989-144.204837-90.310099-76.472262c-96.136558-81.570413-218.492176-126.725462-344.489332-126.725462-62.634424 0-124.540541 10.924609-183.533428 32.773827-58.992888 21.849218-112.887624 53.16643-160.955903 93.951635L81.915286 438.623044 100.851275 582.8278809999999zM990.114433-77.01849200000004c-16.02276-18.935989-40.056899-29.13229-64.819346-29.13229H108.134347c-24.762447 0-48.068279 10.924609-64.819345 29.13229-16.02276 18.935989-24.034139 43.698435-20.392604 67.732575l55.351352 422.418207 79.385491-67.732574c50.253201-42.241821 106.332859-75.015647 167.510668-97.593173 61.177809-22.577525 125.268848-34.230441 190.816501-34.230441 131.095306 0 258.549075 46.611664 358.327169 131.823614l79.385491 67.732574 55.351351-422.418207c5.098151-24.762447-2.913229-49.524893-18.935988-67.732575z"  horiz-adv-x="1037" />

    
    <glyph glyph-name="pingguo-copy" unicode="&#59865;" d="M755.472961 350.351362c-1.125612 166.078945 92.197861 170.376736 96.393325 173.037274-52.494454 76.746278-134.152493 88.821025-163.21375 89.946637-69.480963 7.060658-135.58509-40.112721-170.888378-40.112721-35.200959 0-89.639652 40.215049-147.250525 39.191766-75.722994-1.125612-145.613271-43.898871-184.702708-111.74258-78.690517-136.608374-20.158689-338.911562 56.587589-449.630858 37.452183-54.234036 82.169681-115.119416 140.906166-112.970521 56.48526 2.251224 77.87189 36.633557 146.227241 36.633557s87.490756-36.633557 147.352853-35.405616c60.783052 1.125612 99.360847 55.25732 136.506046 109.696013 43.080244 62.931948 60.783052 120.747477 61.806336 123.817328-1.330269 0.61397-118.598581 66.820426-119.826521 177.539722L755.472961 350.351362 755.472961 350.351362zM511.829112 607.604885c0 123.203358 99.872489 223.178175 223.178175 223.178175C735.007287 707.477374 635.032469 607.604885 511.829112 607.604885z"  horiz-adv-x="1024" />

    
    <glyph glyph-name="pingguo-copy1" unicode="&#59866;" d="M755.472961 350.351362c-1.125612 166.078945 92.197861 170.376736 96.393325 173.037274-52.494454 76.746278-134.152493 88.821025-163.21375 89.946637-69.480963 7.060658-135.58509-40.112721-170.888378-40.112721-35.200959 0-89.639652 40.215049-147.250525 39.191766-75.722994-1.125612-145.613271-43.898871-184.702708-111.74258-78.690517-136.608374-20.158689-338.911562 56.587589-449.630858 37.452183-54.234036 82.169681-115.119416 140.906166-112.970521 56.48526 2.251224 77.87189 36.633557 146.227241 36.633557s87.490756-36.633557 147.352853-35.405616c60.783052 1.125612 99.360847 55.25732 136.506046 109.696013 43.080244 62.931948 60.783052 120.747477 61.806336 123.817328-1.330269 0.61397-118.598581 66.820426-119.826521 177.539722L755.472961 350.351362 755.472961 350.351362zM511.829112 607.604885c0 123.203358 99.872489 223.178175 223.178175 223.178175C735.007287 707.477374 635.032469 607.604885 511.829112 607.604885z"  horiz-adv-x="1024" />

    


  </font>
</defs>
</svg>
